<svg height="345" version="1.1" width="253.333" xmlns="http://www.w3.org/2000/svg" xmlns:xlink="http://www.w3.org/1999/xlink" style="overflow: hidden; position: relative; left: -0.104187px; top: -0.697937px;"><desc style="-webkit-tap-highlight-color: rgba(0, 0, 0, 0);">Created with Raphaël 2.1.2</desc><defs style="-webkit-tap-highlight-color: rgba(0, 0, 0, 0);"></defs><path fill="none" stroke="#40a4f1" d="M126.6665,250.27766666666668A77.77766666666666,77.77766666666666,0,0,0,200.3027806472312,197.54123807948233" stroke-width="2" opacity="0" style="-webkit-tap-highlight-color: rgba(0, 0, 0, 0); opacity: 0;"></path><path fill="#40a4f1" stroke="#ffffff" d="M126.6665,253.27766666666668A80.77766666666666,80.77766666666666,0,0,0,203.14304124399666,198.50711578523052L232.38715330957098,208.45206094297652A111.66649999999998,111.66649999999998,0,0,1,126.6665,284.1665Z" stroke-width="3" style="-webkit-tap-highlight-color: rgba(0, 0, 0, 0);"></path><path fill="none" stroke="#5b6be8" d="M200.3027806472312,197.54123807948233A77.77766666666666,77.77766666666666,0,0,0,56.915861184474835,138.0875921078274" stroke-width="2" opacity="1" style="-webkit-tap-highlight-color: rgba(0, 0, 0, 0); opacity: 1;"></path><path fill="#5b6be8" stroke="#ffffff" d="M203.14304124399666,198.50711578523052A80.77766666666666,80.77766666666666,0,0,0,54.225475558182254,136.76025447864697L22.04054177671226,120.88138816174109A116.66649999999998,116.66649999999998,0,0,1,237.12092097084678,210.0618571192235Z" stroke-width="3" style="-webkit-tap-highlight-color: rgba(0, 0, 0, 0);"></path><path fill="none" stroke="#c1c5e2" d="M56.915861184474835,138.0875921078274A77.77766666666666,77.77766666666666,0,0,0,126.64206542578067,250.27766282849268" stroke-width="2" opacity="0" style="-webkit-tap-highlight-color: rgba(0, 0, 0, 0); opacity: 0;"></path><path fill="#c1c5e2" stroke="#ffffff" d="M54.225475558182254,136.76025447864697A80.77766666666666,80.77766666666666,0,0,0,126.6411229480001,253.27766268044863L126.63141893497196,284.16649448947913A111.66649999999998,111.66649999999998,0,0,1,26.52451782053322,123.09361754370843Z" stroke-width="3" style="-webkit-tap-highlight-color: rgba(0, 0, 0, 0);"></path><text x="126.6665" y="162.5" text-anchor="middle" font-family="&quot;Arial&quot;" font-size="15px" stroke="none" fill="#000000" style="-webkit-tap-highlight-color: rgba(0, 0, 0, 0); text-anchor: middle; font-family: Arial; font-size: 15px; font-weight: 800;" font-weight="800" transform="matrix(1.8229,0,0,1.8229,-104.2355,-142.5011)" stroke-width="0.5485724738256323"><tspan dy="5.9999895095825195" style="-webkit-tap-highlight-color: rgba(0, 0, 0, 0);">Canada</tspan></text><text x="126.6665" y="182.5" text-anchor="middle" font-family="&quot;Arial&quot;" font-size="14px" stroke="none" fill="#000000" style="-webkit-tap-highlight-color: rgba(0, 0, 0, 0); text-anchor: middle; font-family: Arial; font-size: 14px;" transform="matrix(1.6908,0,0,1.6908,-87.5036,-120.7781)" stroke-width="0.5914294408508265"><tspan dy="4.9999895095825195" style="-webkit-tap-highlight-color: rgba(0, 0, 0, 0);">30</tspan></text></svg>